<svg width="161" height="129" viewBox="0 0 161 129" fill="none" xmlns="http://www.w3.org/2000/svg">
<path d="M144.167 32.6667L80.5 72.4583L16.8333 32.6667V16.75L80.5 56.5417L144.167 16.75M144.167 0.833334H16.8333C7.99954 0.833334 0.916626 7.91625 0.916626 16.75V112.25C0.916626 116.471 2.59356 120.52 5.57851 123.505C8.56346 126.49 12.6119 128.167 16.8333 128.167H144.167C148.388 128.167 152.436 126.49 155.421 123.505C158.406 120.52 160.083 116.471 160.083 112.25V16.75C160.083 12.5286 158.406 8.48017 155.421 5.49522C152.436 2.51026 148.388 0.833334 144.167 0.833334Z" fill="white"/>
</svg>
